# xmcd CD database file
#
# Track frame offsets:
#	180
#	19536
#	36831
#	59428
#	81281
#	110633
#	121643
#	139013
#	162016
#	183413
#	200744
#	230494
#	240931
#	262836
#	293943
#
# Disc length: 4134 seconds
#
# Revision: 4
# Processed by: cddbd v1.4PL0 Copyright (c) Steve Scherf et al.
# Submitted via: CDex 1.40Beta9
#
DISCID=c610240f
DTITLE=Too Slim and the Taildraggers - Blues for EB
DYEAR=1997
DGENRE=Blues
TTITLE0=Uranium Rock
TTITLE1=A Gril Like Mine
TTITLE2=Have To Let You Go
TTITLE3=You and Me
TTITLE4=Bad Boy
TTITLE5=One More Shot
TTITLE6=Blues for EB
TTITLE7=Waitin' For The Sun To Shine
TTITLE8=Drinkin' Blues
TTITLE9=Nothin' But Trouble
TTITLE10=My Load
TTITLE11=Tiger Love and Turnip Greens
TTITLE12=Killin' Me
TTITLE13=Dollar Girls
TTITLE14=Comin' Home
EXTD=YEAR: 1997 ID3G: 0
EXTT0=
EXTT1=
EXTT2=
EXTT3=
EXTT4=
EXTT5=
EXTT6=
EXTT7=
EXTT8=
EXTT9=
EXTT10=
EXTT11=
EXTT12=
EXTT13=
EXTT14=
PLAYORDER=
